<svg width="24" height="24" viewBox="0 0 24 24" fill="none" xmlns="http://www.w3.org/2000/svg">
<g clip-path="url(#clip0_27_2)">
<path d="M22.4789 4.49999H18.2105L18.6286 2.82843L20.4248 2.21671C20.8069 2.08687 21.0342 1.68093 20.9241 1.29281C20.896 1.19517 20.8485 1.10425 20.7842 1.02555C20.72 0.946853 20.6405 0.882022 20.5504 0.834989C20.4604 0.787956 20.3618 0.759702 20.2605 0.751941C20.1592 0.74418 20.0574 0.757073 19.9612 0.789839L17.7581 1.53984C17.6395 1.5803 17.5329 1.64985 17.448 1.74213C17.3632 1.83442 17.3028 1.9465 17.2725 2.06812L16.6645 4.49999H10.5211C10.1175 4.49999 9.77109 4.81031 9.75093 5.2139C9.74604 5.31531 9.7618 5.41665 9.79724 5.51179C9.83267 5.60693 9.88706 5.69388 9.9571 5.76738C10.0271 5.84088 10.1114 5.89939 10.2047 5.93938C10.298 5.97936 10.3985 5.99998 10.5 5.99999H10.6289L10.6758 6.40593C10.6868 6.50073 10.7323 6.58816 10.8036 6.6516C10.8749 6.71504 10.9671 6.75006 11.0625 6.74999C12.8906 6.74999 14.5153 7.26093 15.7556 8.22749C16.4455 8.75905 17.0047 9.44127 17.3906 10.222C17.6066 10.6612 17.766 11.126 17.865 11.6053C17.8847 11.6987 17.94 11.7808 18.0192 11.8341C18.6569 12.2667 19.1273 12.9046 19.3522 13.6416C19.5772 14.3786 19.5431 15.1704 19.2558 15.8855C19.2223 15.9682 19.2199 16.0602 19.2487 16.1447C19.4148 16.6206 19.4997 17.121 19.5 17.625C19.5 18.6722 19.1437 19.6701 18.4969 20.4351C18.1301 20.8718 17.6688 21.2191 17.1478 21.4509C17.0577 21.4906 16.9868 21.5642 16.9505 21.6558C16.7558 22.1629 16.4809 22.6355 16.1362 23.0555C16.1219 23.0725 16.1127 23.0933 16.1097 23.1153C16.1068 23.1374 16.1102 23.1599 16.1195 23.1801C16.1289 23.2003 16.1438 23.2174 16.1625 23.2295C16.1813 23.2415 16.203 23.248 16.2253 23.2481H18.532C19.0968 23.2458 19.6402 23.0321 20.0554 22.6492C20.4705 22.2663 20.7272 21.7418 20.775 21.179L22.3781 5.99999H22.5C22.6016 6.00011 22.7022 5.97958 22.7956 5.93965C22.889 5.89973 22.9734 5.84123 23.0435 5.76772C23.1136 5.69421 23.1681 5.60721 23.2036 5.51201C23.2391 5.41681 23.2549 5.31538 23.25 5.2139C23.2303 4.81031 22.8825 4.49999 22.4789 4.49999Z" fill="#008C8C"/>
<path d="M5.09484 15C5.24277 14.9993 5.38936 15.0279 5.52614 15.0843C5.66292 15.1406 5.78718 15.2235 5.89172 15.3281L6.61875 16.0552C6.63616 16.0726 6.65684 16.0864 6.67961 16.0959C6.70237 16.1053 6.72677 16.1101 6.75141 16.1101C6.77605 16.1101 6.80045 16.1053 6.82321 16.0959C6.84597 16.0864 6.86665 16.0726 6.88406 16.0552L7.60969 15.3281C7.71423 15.2235 7.83849 15.1406 7.97527 15.0843C8.11205 15.0279 8.25864 14.9993 8.40656 15H17.6213C17.6705 15.0005 17.7194 14.9913 17.765 14.9729C17.8107 14.9545 17.8523 14.9273 17.8875 14.8928C17.9227 14.8583 17.9507 14.8173 17.97 14.772C17.9893 14.7267 17.9995 14.678 18 14.6287V14.625C17.9995 14.1929 17.85 13.7742 17.5768 13.4395C17.3035 13.1048 16.9232 12.8745 16.5 12.7875C16.4616 11.3958 15.8906 10.2309 14.8355 9.4125C13.8595 8.65125 12.5555 8.25 11.0625 8.25H7.6875C4.48969 8.25 2.32359 10.0673 2.25 12.7875C1.82677 12.8745 1.44649 13.1048 1.17325 13.4395C0.90001 13.7742 0.750528 14.1929 0.75 14.625C0.75 14.7245 0.789509 14.8198 0.859835 14.8902C0.930161 14.9605 1.02554 15 1.125 15H5.09484Z" fill="#008C8C"/>
<path d="M8.71594 16.5C8.66668 16.5 8.61789 16.5096 8.57237 16.5284C8.52685 16.5473 8.48548 16.5749 8.45063 16.6097L7.41281 17.648C7.23701 17.8237 6.99859 17.9225 6.75 17.9225C6.50141 17.9225 6.263 17.8237 6.08719 17.648L5.04938 16.6097C5.01452 16.5749 4.97315 16.5473 4.92763 16.5284C4.88211 16.5096 4.83332 16.5 4.78406 16.5H1.53094C1.35476 16.4992 1.18398 16.5608 1.04879 16.6737C0.913601 16.7867 0.82271 16.9438 0.792188 17.1173C0.764027 17.2851 0.749916 17.4549 0.75 17.625C0.75 19.0589 1.74047 20.227 2.96531 20.25C3.07922 20.9587 3.35484 21.5991 3.76969 22.1001C4.38328 22.8412 5.27531 23.25 6.28125 23.25H12.4688C13.4747 23.25 14.3667 22.8412 14.9803 22.0992C15.3952 21.5981 15.6708 20.9578 15.7847 20.2491C17.0095 20.227 18 19.0589 18 17.6241C18.0001 17.454 17.986 17.2842 17.9578 17.1164C17.9271 16.9431 17.8361 16.7861 17.7009 16.6734C17.5658 16.5606 17.3951 16.4992 17.2191 16.5H8.71594Z" fill="#008C8C"/>
</g>
<defs>
<clipPath id="clip0_27_2">
<rect width="24" height="24" fill="white"/>
</clipPath>
</defs>
</svg>
